<?xml version="1.0" encoding="utf-8"?>
<!-- Generator: Adobe Illustrator 23.0.1, SVG Export Plug-In . SVG Version: 6.00 Build 0)  -->
<svg version="1.1" id="Camada_1" xmlns="http://www.w3.org/2000/svg" xmlns:xlink="http://www.w3.org/1999/xlink" x="0px" y="0px"
	 viewBox="0 0 1536 2048" style="enable-background:new 0 0 1536 2048;" xml:space="preserve">
<style type="text/css">
	.st0{opacity:0.998;fill-rule:evenodd;clip-rule:evenodd;fill:#263237;enable-background:new    ;}
	.st1{opacity:0.955;fill-rule:evenodd;clip-rule:evenodd;fill:#1A2226;enable-background:new    ;}
	.st2{fill-rule:evenodd;clip-rule:evenodd;fill:#EFF2F5;}
	.st3{fill-rule:evenodd;clip-rule:evenodd;fill:#1B2327;}
	.st4{opacity:0.993;fill-rule:evenodd;clip-rule:evenodd;fill:#F0F3F5;enable-background:new    ;}
	.st5{opacity:0.981;fill-rule:evenodd;clip-rule:evenodd;fill:#1C2428;enable-background:new    ;}
</style>
<g>
	<path class="st0" d="M350,1521.9c-140.2-131.7-222.5-437.8-222.5-437.8c144.1-15.2,90.1,6,177.3-117.6c50-83,50.3-156,54.7-252.3
		c18.6-122.4,34.3-245,48.1-367.8c3.9-25.5,17.6-42.3,41.7-50.9c22.5,3.7,42.6,11.3,61.3,23.7c86.3,68.1,149.4,153.5,189.5,256.7
		c11.1,2.5,22.1,4.6,33.5,5.8c14.1-4.3,29-5.9,44.2-4.7c161,13.7,299.2,74.8,414.7,184c5.6,8.7,11.3,17.4,16.9,26.1
		c-25.3,10.1-48.7,24.2-70.8,42.4c-37.2,43.9-42,91.9-15.4,143.5c35.2,39.5,78.5,56.8,130.1,51.3c7.7,5.7,16.4,8,26.6,6.5
		c20.6-5,41.2-10.4,61.8-15.8c6-1.6,10.8-0.7,14.4,3.1c82.4,165.2,40.7,291-124.7,378.3c-82.1,28.7-163.7,58.2-244.7,88.7
		c-60,20.3-118.6,44.6-175.9,72.1c-59.2,27.2-109.2,66-150.1,115.9C490.6,1630.3,436.5,1603.1,350,1521.9z"/>
</g>
<g>
	<path class="st1" d="M805.5,571.6c26.5-25.1,49.4-53.1,68.7-84c27.8-57.8,55-116,82.8-173.9c13.1-9.8,27-11.2,41.9-4.4
		c19.5,15.1,36,32.9,50.3,52.8c63.2,117,102.7,241.2,119.5,373.4c9.3,7.9,17.3,16.3,23.9,25.4c-115.5-109.2-253.8-170.3-414.7-184
		C787.3,576.8,796.5,574.9,805.5,571.6z"/>
</g>
<g>
	<path class="st2" d="M669.1,792.6c57.7-46.8,123.6-67.6,198.2-62.9c12.2,1.1,22.8,4.8,31.4,11.7c-106.1,84.9-127.9,186.6-64,306.2
		c-0.8,3.7-3.6,5.8-8.3,6.9c-62.5-9.6-116.4-35.6-162-78.7c-28.2-38.3-38.7-81-31.7-128.4C640.8,827.4,653.3,808.7,669.1,792.6z"/>
</g>
<g>
	<path class="st3" d="M961,761.7c86.4,59.1,107.7,135.3,63.5,229.9c-47.8,49.4-106.8,72.4-176.4,69.6c-4.2-5.5-8.3-9.9-13.5-13.5
		c-63.9-119.6-42.1-221.4,64-306.2C921.1,743.2,941.7,750,961,761.7z"/>
</g>
<g>
	<path class="st4" d="M1481.4,811.5c54.4,92.5,37.1,168-51.3,227c-4.7-4.9-10.9-6-18.5-4c57.1-30,88.2-77.6,93.5-141.7
		c-22.5-76.1-73.6-120.4-152.7-133.6c-95,81.9-112.5,177.8-54,287.2c-66.1,7-121.5-15.3-166.7-66.2c-34.1-66.5-28-128.2,19.6-184.8
		c28.3-23.4,58.3-41.5,90.6-54.5C1332,731.5,1412.2,754.7,1481.4,811.5z"/>
</g>
<g>
	<path class="st5" d="M1352.4,759.3c79.1,13.2,130.2,57.5,152.7,133.6c-5.3,64-36.4,111.7-93.5,141.7c-26.4,7-52.7,14-79.2,20.4
		c-13,2-24.2-1-34-8.4C1239.9,937.1,1257.4,841.2,1352.4,759.3z"/>
</g>
</svg>
